<svg width="45" height="45" viewBox="0 0 45 45" fill="none" xmlns="http://www.w3.org/2000/svg">
<g clip-path="url(#clip0_258_28)">
<path d="M17.8124 38.2359L13.3779 25.6423L8.21396 23.4445L4.01349 22.6949L9.62187 38.622C10.0549 39.8517 11.4008 40.4936 12.6268 40.0618L17.8124 38.2359Z" fill="#4285F4"/>
<path d="M35.5915 31.9753L40.7771 30.1493C42.0068 29.7163 42.6486 28.3704 42.2169 27.1444L36.6085 11.2173L33.4414 14.8854L31.157 19.3818L35.5915 31.9753Z" fill="#34A853"/>
<path d="M13.3778 25.6423L11.1137 20.9088L9.98672 16.012L21.2239 19.5489L27.7658 9.75148L29.9291 13.9975L31.1569 19.3818L24.6151 29.1792L13.3778 25.6423Z" fill="#EA4335"/>
<path d="M27.7659 9.75145L31.157 19.3818L36.6085 11.2173L35.5651 8.25409C34.5973 5.50574 30.9084 5.04369 29.2923 7.46539L27.7659 9.75145Z" fill="#FBBC04"/>
<path d="M4.01349 22.6949L8.32032 24.0504L13.3779 25.6423L9.98675 16.012L7.36473 15.1867C4.58416 14.3132 2.0023 16.9834 2.97007 19.7317L4.01349 22.6949Z" fill="#C5221F"/>
</g>
<defs>
<clipPath id="clip0_258_28">
<rect width="34.5568" height="34.5568" fill="white" transform="translate(0.381714 12.3811) rotate(-19.3986)"/>
</clipPath>
</defs>
</svg>
