<svg width="40" height="39" viewBox="0 0 40 39" fill="none" xmlns="http://www.w3.org/2000/svg">
<g clip-path="url(#clip0_258_38)">
<path d="M26.7354 7.30832C19.8367 3.43669 11.1115 5.89157 7.24168 12.7871C4.14496 18.305 5.09622 24.9918 9.13082 29.4248C9.68914 29.8927 10.1347 29.6352 10.321 29.3033C10.4874 29.0067 10.9179 28.2153 11.4967 27.1718C7.6006 25.9759 8.23103 23.1362 8.23103 23.1362C8.47169 21.3763 7.86678 20.5305 7.86678 20.5305C7.17019 19.1216 8.37989 19.8211 8.37989 19.8211C9.58466 20.6121 9.57059 22.1805 9.57059 22.1805C9.61239 24.7146 11.7314 25.1787 12.6244 25.2598C13.19 24.5154 13.8204 24.1455 14.3525 24.0336C11.7547 22.1652 9.44281 19.4557 12.1278 14.6714C12.8928 13.3083 14.0015 12.4665 15.2932 12.0421C15.3297 11.648 15.6207 10.1421 17.2571 8.79873C17.2571 8.79873 18.4909 9.05056 19.9726 12.0056C21.1274 12.2884 22.2658 12.7467 23.3306 13.3361C24.3885 13.938 25.3727 14.671 26.2157 15.5094C29.4944 15.2259 30.3521 16.1478 30.3521 16.1478C30.0579 18.2445 28.9241 19.2774 28.6223 19.5226C28.9278 20.8434 28.7868 22.2282 28.0218 23.5913C25.3298 28.3881 21.8184 27.8063 18.8679 26.5541C19.0947 27.1739 19.0707 28.1675 18.4144 29.337C17.4765 31.0081 16.7076 32.3416 16.4799 32.7474C16.2959 33.0752 16.2955 33.588 17.0055 33.8223C22.9202 34.9881 29.1222 32.3116 32.2142 26.802C36.0841 19.9065 33.631 11.1782 26.7354 7.30832Z" fill="black"/>
</g>
<defs>
<clipPath id="clip0_258_38">
<rect width="28.6364" height="28.6364" fill="white" transform="translate(14.4227 -0.00830078) rotate(29.3018)"/>
</clipPath>
</defs>
</svg>
