<svg width="600" height="600" viewBox="0 0 402 442" fill="none" xmlns="http://www.w3.org/2000/svg">
<rect x="150" y="103" width="102" height="12" fill="#E9E1FF" fill-opacity="0.8"/>
<rect x="150" y="331" width="102" height="12" fill="#E9E1FF" fill-opacity="0.8"/>
<rect x="321" y="292" width="102" height="12" transform="rotate(-90 321 292)" fill="#E9E1FF" fill-opacity="0.8"/>
<rect x="69" y="255" width="105" height="12" transform="rotate(-90 69 255)" fill="#E9E1FF" fill-opacity="0.8"/>
<path d="M0 32C0 14.3269 14.3269 0 32 0H118C135.673 0 150 14.3269 150 32V150H32C14.3269 150 0 135.673 0 118V32Z" fill="white"/>
<path d="M92.2917 37.625H56.7083C53.9009 37.625 51.625 39.9009 51.625 42.7083V78.2917C51.625 81.0991 53.9009 83.375 56.7083 83.375H92.2917C95.0991 83.375 97.375 81.0991 97.375 78.2917V42.7083C97.375 39.9009 95.0991 37.625 92.2917 37.625Z" stroke="#2D1762" stroke-width="6" stroke-linecap="round" stroke-linejoin="round"/>
<path d="M51.625 52.875H97.375" stroke="#2D1762" stroke-width="6" stroke-linecap="round" stroke-linejoin="round"/>
<path d="M66.875 83.375V52.875" stroke="#2D1762" stroke-width="6" stroke-linecap="round" stroke-linejoin="round"/>
<path d="M53.4269 105.416H56.1149V107H51.3749V98.576H53.4269V105.416ZM56.6856 103.64C56.6856 102.952 56.8136 102.348 57.0696 101.828C57.3336 101.308 57.6896 100.908 58.1376 100.628C58.5856 100.348 59.0856 100.208 59.6376 100.208C60.1096 100.208 60.5216 100.304 60.8736 100.496C61.2336 100.688 61.5096 100.94 61.7016 101.252V100.304H63.7536V107H61.7016V106.052C61.5016 106.364 61.2216 106.616 60.8616 106.808C60.5096 107 60.0976 107.096 59.6256 107.096C59.0816 107.096 58.5856 106.956 58.1376 106.676C57.6896 106.388 57.3336 105.984 57.0696 105.464C56.8136 104.936 56.6856 104.328 56.6856 103.64ZM61.7016 103.652C61.7016 103.14 61.5576 102.736 61.2696 102.44C60.9896 102.144 60.6456 101.996 60.2376 101.996C59.8296 101.996 59.4816 102.144 59.1936 102.44C58.9136 102.728 58.7736 103.128 58.7736 103.64C58.7736 104.152 58.9136 104.56 59.1936 104.864C59.4816 105.16 59.8296 105.308 60.2376 105.308C60.6456 105.308 60.9896 105.16 61.2696 104.864C61.5576 104.568 61.7016 104.164 61.7016 103.652ZM72.0781 100.304L67.8781 110.18H65.6701L67.2061 106.772L64.4821 100.304H66.7741L68.3221 104.492L69.8581 100.304H72.0781ZM75.8682 107.096C75.2122 107.096 74.6202 106.956 74.0922 106.676C73.5722 106.396 73.1602 105.996 72.8562 105.476C72.5602 104.956 72.4122 104.348 72.4122 103.652C72.4122 102.964 72.5642 102.36 72.8682 101.84C73.1722 101.312 73.5882 100.908 74.1162 100.628C74.6442 100.348 75.2362 100.208 75.8922 100.208C76.5482 100.208 77.1402 100.348 77.6682 100.628C78.1962 100.908 78.6122 101.312 78.9162 101.84C79.2202 102.36 79.3722 102.964 79.3722 103.652C79.3722 104.34 79.2162 104.948 78.9042 105.476C78.6002 105.996 78.1802 106.396 77.6442 106.676C77.1162 106.956 76.5242 107.096 75.8682 107.096ZM75.8682 105.32C76.2602 105.32 76.5922 105.176 76.8642 104.888C77.1442 104.6 77.2842 104.188 77.2842 103.652C77.2842 103.116 77.1482 102.704 76.8762 102.416C76.6122 102.128 76.2842 101.984 75.8922 101.984C75.4922 101.984 75.1602 102.128 74.8962 102.416C74.6322 102.696 74.5002 103.108 74.5002 103.652C74.5002 104.188 74.6282 104.6 74.8842 104.888C75.1482 105.176 75.4762 105.32 75.8682 105.32ZM87.0728 100.304V107H85.0208V106.088C84.8128 106.384 84.5288 106.624 84.1688 106.808C83.8168 106.984 83.4248 107.072 82.9928 107.072C82.4808 107.072 82.0288 106.96 81.6368 106.736C81.2448 106.504 80.9408 106.172 80.7248 105.74C80.5088 105.308 80.4008 104.8 80.4008 104.216V100.304H82.4408V103.94C82.4408 104.388 82.5568 104.736 82.7888 104.984C83.0208 105.232 83.3328 105.356 83.7248 105.356C84.1248 105.356 84.4408 105.232 84.6728 104.984C84.9048 104.736 85.0208 104.388 85.0208 103.94V100.304H87.0728ZM92.2787 105.26V107H91.2347C90.4907 107 89.9107 106.82 89.4947 106.46C89.0787 106.092 88.8707 105.496 88.8707 104.672V102.008H88.0547V100.304H88.8707V98.672H90.9227V100.304H92.2667V102.008H90.9227V104.696C90.9227 104.896 90.9707 105.04 91.0667 105.128C91.1627 105.216 91.3227 105.26 91.5467 105.26H92.2787ZM96.1457 107.096C95.5617 107.096 95.0417 106.996 94.5857 106.796C94.1297 106.596 93.7697 106.324 93.5057 105.98C93.2417 105.628 93.0937 105.236 93.0617 104.804H95.0897C95.1137 105.036 95.2217 105.224 95.4137 105.368C95.6057 105.512 95.8417 105.584 96.1217 105.584C96.3777 105.584 96.5737 105.536 96.7097 105.44C96.8537 105.336 96.9257 105.204 96.9257 105.044C96.9257 104.852 96.8257 104.712 96.6257 104.624C96.4257 104.528 96.1017 104.424 95.6537 104.312C95.1737 104.2 94.7737 104.084 94.4537 103.964C94.1337 103.836 93.8577 103.64 93.6257 103.376C93.3937 103.104 93.2777 102.74 93.2777 102.284C93.2777 101.9 93.3817 101.552 93.5897 101.24C93.8057 100.92 94.1177 100.668 94.5257 100.484C94.9417 100.3 95.4337 100.208 96.0017 100.208C96.8417 100.208 97.5017 100.416 97.9817 100.832C98.4697 101.248 98.7497 101.8 98.8217 102.488H96.9257C96.8937 102.256 96.7897 102.072 96.6137 101.936C96.4457 101.8 96.2217 101.732 95.9417 101.732C95.7017 101.732 95.5177 101.78 95.3897 101.876C95.2617 101.964 95.1977 102.088 95.1977 102.248C95.1977 102.44 95.2977 102.584 95.4977 102.68C95.7057 102.776 96.0257 102.872 96.4577 102.968C96.9537 103.096 97.3577 103.224 97.6697 103.352C97.9817 103.472 98.2537 103.672 98.4857 103.952C98.7257 104.224 98.8497 104.592 98.8577 105.056C98.8577 105.448 98.7457 105.8 98.5217 106.112C98.3057 106.416 97.9897 106.656 97.5737 106.832C97.1657 107.008 96.6897 107.096 96.1457 107.096ZM41.1103 125L39.3583 121.82H38.8663V125H36.8143V116.576H40.2583C40.9223 116.576 41.4863 116.692 41.9503 116.924C42.4223 117.156 42.7743 117.476 43.0063 117.884C43.2383 118.284 43.3543 118.732 43.3543 119.228C43.3543 119.788 43.1943 120.288 42.8743 120.728C42.5623 121.168 42.0983 121.48 41.4823 121.664L43.4263 125H41.1103ZM38.8663 120.368H40.1383C40.5143 120.368 40.7943 120.276 40.9783 120.092C41.1703 119.908 41.2663 119.648 41.2663 119.312C41.2663 118.992 41.1703 118.74 40.9783 118.556C40.7943 118.372 40.5143 118.28 40.1383 118.28H38.8663V120.368ZM50.9544 121.544C50.9544 121.736 50.9424 121.936 50.9184 122.144H46.2744C46.3064 122.56 46.4384 122.88 46.6704 123.104C46.9104 123.32 47.2024 123.428 47.5464 123.428C48.0584 123.428 48.4144 123.212 48.6144 122.78H50.7984C50.6864 123.22 50.4824 123.616 50.1864 123.968C49.8984 124.32 49.5344 124.596 49.0944 124.796C48.6544 124.996 48.1624 125.096 47.6184 125.096C46.9624 125.096 46.3784 124.956 45.8664 124.676C45.3544 124.396 44.9544 123.996 44.6664 123.476C44.3784 122.956 44.2344 122.348 44.2344 121.652C44.2344 120.956 44.3744 120.348 44.6544 119.828C44.9424 119.308 45.3424 118.908 45.8544 118.628C46.3664 118.348 46.9544 118.208 47.6184 118.208C48.2664 118.208 48.8424 118.344 49.3464 118.616C49.8504 118.888 50.2424 119.276 50.5224 119.78C50.8104 120.284 50.9544 120.872 50.9544 121.544ZM48.8544 121.004C48.8544 120.652 48.7344 120.372 48.4944 120.164C48.2544 119.956 47.9544 119.852 47.5944 119.852C47.2504 119.852 46.9584 119.952 46.7184 120.152C46.4864 120.352 46.3424 120.636 46.2864 121.004H48.8544ZM54.761 125.096C54.177 125.096 53.657 124.996 53.201 124.796C52.745 124.596 52.385 124.324 52.121 123.98C51.857 123.628 51.709 123.236 51.677 122.804H53.705C53.729 123.036 53.837 123.224 54.029 123.368C54.221 123.512 54.457 123.584 54.737 123.584C54.993 123.584 55.189 123.536 55.325 123.44C55.469 123.336 55.541 123.204 55.541 123.044C55.541 122.852 55.441 122.712 55.241 122.624C55.041 122.528 54.717 122.424 54.269 122.312C53.789 122.2 53.389 122.084 53.069 121.964C52.749 121.836 52.473 121.64 52.241 121.376C52.009 121.104 51.893 120.74 51.893 120.284C51.893 119.9 51.997 119.552 52.205 119.24C52.421 118.92 52.733 118.668 53.141 118.484C53.557 118.3 54.049 118.208 54.617 118.208C55.457 118.208 56.117 118.416 56.597 118.832C57.085 119.248 57.365 119.8 57.437 120.488H55.541C55.509 120.256 55.405 120.072 55.229 119.936C55.061 119.8 54.837 119.732 54.557 119.732C54.317 119.732 54.133 119.78 54.005 119.876C53.877 119.964 53.813 120.088 53.813 120.248C53.813 120.44 53.913 120.584 54.113 120.68C54.321 120.776 54.641 120.872 55.073 120.968C55.569 121.096 55.973 121.224 56.285 121.352C56.597 121.472 56.869 121.672 57.101 121.952C57.341 122.224 57.465 122.592 57.473 123.056C57.473 123.448 57.361 123.8 57.137 124.112C56.921 124.416 56.605 124.656 56.189 124.832C55.781 125.008 55.305 125.096 54.761 125.096ZM60.7804 119.252C60.9804 118.94 61.2564 118.688 61.6084 118.496C61.9604 118.304 62.3724 118.208 62.8444 118.208C63.3964 118.208 63.8964 118.348 64.3444 118.628C64.7924 118.908 65.1444 119.308 65.4004 119.828C65.6644 120.348 65.7964 120.952 65.7964 121.64C65.7964 122.328 65.6644 122.936 65.4004 123.464C65.1444 123.984 64.7924 124.388 64.3444 124.676C63.8964 124.956 63.3964 125.096 62.8444 125.096C62.3804 125.096 61.9684 125 61.6084 124.808C61.2564 124.616 60.9804 124.368 60.7804 124.064V128.192H58.7284V118.304H60.7804V119.252ZM63.7084 121.64C63.7084 121.128 63.5644 120.728 63.2764 120.44C62.9964 120.144 62.6484 119.996 62.2324 119.996C61.8244 119.996 61.4764 120.144 61.1884 120.44C60.9084 120.736 60.7684 121.14 60.7684 121.652C60.7684 122.164 60.9084 122.568 61.1884 122.864C61.4764 123.16 61.8244 123.308 62.2324 123.308C62.6404 123.308 62.9884 123.16 63.2764 122.864C63.5644 122.56 63.7084 122.152 63.7084 121.64ZM69.9209 125.096C69.2649 125.096 68.6729 124.956 68.1449 124.676C67.6249 124.396 67.2129 123.996 66.9089 123.476C66.6129 122.956 66.4649 122.348 66.4649 121.652C66.4649 120.964 66.6169 120.36 66.9209 119.84C67.2249 119.312 67.6409 118.908 68.1689 118.628C68.6969 118.348 69.2889 118.208 69.9449 118.208C70.6009 118.208 71.1929 118.348 71.7209 118.628C72.2489 118.908 72.6649 119.312 72.9689 119.84C73.2729 120.36 73.4249 120.964 73.4249 121.652C73.4249 122.34 73.2689 122.948 72.9569 123.476C72.6529 123.996 72.2329 124.396 71.6969 124.676C71.1689 124.956 70.5769 125.096 69.9209 125.096ZM69.9209 123.32C70.3129 123.32 70.6449 123.176 70.9169 122.888C71.1969 122.6 71.3369 122.188 71.3369 121.652C71.3369 121.116 71.2009 120.704 70.9289 120.416C70.6649 120.128 70.3369 119.984 69.9449 119.984C69.5449 119.984 69.2129 120.128 68.9489 120.416C68.6849 120.696 68.5529 121.108 68.5529 121.652C68.5529 122.188 68.6809 122.6 68.9369 122.888C69.2009 123.176 69.5289 123.32 69.9209 123.32ZM78.5935 118.232C79.3775 118.232 80.0015 118.488 80.4655 119C80.9375 119.504 81.1735 120.2 81.1735 121.088V125H79.1335V121.364C79.1335 120.916 79.0175 120.568 78.7855 120.32C78.5535 120.072 78.2415 119.948 77.8495 119.948C77.4575 119.948 77.1455 120.072 76.9135 120.32C76.6815 120.568 76.5655 120.916 76.5655 121.364V125H74.5135V118.304H76.5655V119.192C76.7735 118.896 77.0535 118.664 77.4055 118.496C77.7575 118.32 78.1535 118.232 78.5935 118.232ZM85.3235 125.096C84.7395 125.096 84.2195 124.996 83.7635 124.796C83.3075 124.596 82.9475 124.324 82.6835 123.98C82.4195 123.628 82.2715 123.236 82.2395 122.804H84.2675C84.2915 123.036 84.3995 123.224 84.5915 123.368C84.7835 123.512 85.0195 123.584 85.2995 123.584C85.5555 123.584 85.7515 123.536 85.8875 123.44C86.0315 123.336 86.1035 123.204 86.1035 123.044C86.1035 122.852 86.0035 122.712 85.8035 122.624C85.6035 122.528 85.2795 122.424 84.8315 122.312C84.3515 122.2 83.9515 122.084 83.6315 121.964C83.3115 121.836 83.0355 121.64 82.8035 121.376C82.5715 121.104 82.4555 120.74 82.4555 120.284C82.4555 119.9 82.5595 119.552 82.7675 119.24C82.9835 118.92 83.2955 118.668 83.7035 118.484C84.1195 118.3 84.6115 118.208 85.1795 118.208C86.0195 118.208 86.6795 118.416 87.1595 118.832C87.6475 119.248 87.9275 119.8 87.9995 120.488H86.1035C86.0715 120.256 85.9675 120.072 85.7915 119.936C85.6235 119.8 85.3995 119.732 85.1195 119.732C84.8795 119.732 84.6955 119.78 84.5675 119.876C84.4395 119.964 84.3755 120.088 84.3755 120.248C84.3755 120.44 84.4755 120.584 84.6755 120.68C84.8835 120.776 85.2035 120.872 85.6355 120.968C86.1315 121.096 86.5355 121.224 86.8475 121.352C87.1595 121.472 87.4315 121.672 87.6635 121.952C87.9035 122.224 88.0275 122.592 88.0355 123.056C88.0355 123.448 87.9235 123.8 87.6995 124.112C87.4835 124.416 87.1675 124.656 86.7515 124.832C86.3435 125.008 85.8675 125.096 85.3235 125.096ZM90.3229 117.608C89.9629 117.608 89.6669 117.504 89.4349 117.296C89.2109 117.08 89.0989 116.816 89.0989 116.504C89.0989 116.184 89.2109 115.92 89.4349 115.712C89.6669 115.496 89.9629 115.388 90.3229 115.388C90.6749 115.388 90.9629 115.496 91.1869 115.712C91.4189 115.92 91.5349 116.184 91.5349 116.504C91.5349 116.816 91.4189 117.08 91.1869 117.296C90.9629 117.504 90.6749 117.608 90.3229 117.608ZM91.3429 118.304V125H89.2909V118.304H91.3429ZM95.8419 123.08L97.2939 118.304H99.4779L97.1019 125H94.5699L92.1939 118.304H94.3899L95.8419 123.08ZM103.39 125.096C102.734 125.096 102.142 124.956 101.614 124.676C101.094 124.396 100.682 123.996 100.378 123.476C100.082 122.956 99.9337 122.348 99.9337 121.652C99.9337 120.964 100.086 120.36 100.39 119.84C100.694 119.312 101.11 118.908 101.638 118.628C102.166 118.348 102.758 118.208 103.414 118.208C104.07 118.208 104.662 118.348 105.19 118.628C105.718 118.908 106.134 119.312 106.438 119.84C106.742 120.36 106.894 120.964 106.894 121.652C106.894 122.34 106.738 122.948 106.426 123.476C106.122 123.996 105.702 124.396 105.166 124.676C104.638 124.956 104.046 125.096 103.39 125.096ZM103.39 123.32C103.782 123.32 104.114 123.176 104.386 122.888C104.666 122.6 104.806 122.188 104.806 121.652C104.806 121.116 104.67 120.704 104.398 120.416C104.134 120.128 103.806 119.984 103.414 119.984C103.014 119.984 102.682 120.128 102.418 120.416C102.154 120.696 102.022 121.108 102.022 121.652C102.022 122.188 102.15 122.6 102.406 122.888C102.67 123.176 102.998 123.32 103.39 123.32ZM110.706 125.096C110.122 125.096 109.602 124.996 109.146 124.796C108.69 124.596 108.33 124.324 108.066 123.98C107.802 123.628 107.654 123.236 107.622 122.804H109.65C109.674 123.036 109.782 123.224 109.974 123.368C110.166 123.512 110.402 123.584 110.682 123.584C110.938 123.584 111.134 123.536 111.27 123.44C111.414 123.336 111.486 123.204 111.486 123.044C111.486 122.852 111.386 122.712 111.186 122.624C110.986 122.528 110.662 122.424 110.214 122.312C109.734 122.2 109.334 122.084 109.014 121.964C108.694 121.836 108.418 121.64 108.186 121.376C107.954 121.104 107.838 120.74 107.838 120.284C107.838 119.9 107.942 119.552 108.15 119.24C108.366 118.92 108.678 118.668 109.086 118.484C109.502 118.3 109.994 118.208 110.562 118.208C111.402 118.208 112.062 118.416 112.542 118.832C113.03 119.248 113.31 119.8 113.382 120.488H111.486C111.454 120.256 111.35 120.072 111.174 119.936C111.006 119.8 110.782 119.732 110.502 119.732C110.262 119.732 110.078 119.78 109.95 119.876C109.822 119.964 109.758 120.088 109.758 120.248C109.758 120.44 109.858 120.584 110.058 120.68C110.266 120.776 110.586 120.872 111.018 120.968C111.514 121.096 111.918 121.224 112.23 121.352C112.542 121.472 112.814 121.672 113.046 121.952C113.286 122.224 113.41 122.592 113.418 123.056C113.418 123.448 113.306 123.8 113.082 124.112C112.866 124.416 112.55 124.656 112.134 124.832C111.726 125.008 111.25 125.096 110.706 125.096Z" fill="#8A90A2"/>
<path d="M0 287C0 269.327 14.3269 255 32 255H150V373C150 390.673 135.673 405 118 405H32C14.3269 405 0 390.673 0 373V287Z" fill="white"/>
<path d="M21.6538 351.776C21.6538 350.944 21.8338 350.204 22.1938 349.556C22.5538 348.9 23.0538 348.392 23.6938 348.032C24.3418 347.664 25.0738 347.48 25.8898 347.48C26.8898 347.48 27.7458 347.744 28.4578 348.272C29.1698 348.8 29.6458 349.52 29.8858 350.432H27.6298C27.4618 350.08 27.2218 349.812 26.9098 349.628C26.6058 349.444 26.2578 349.352 25.8658 349.352C25.2338 349.352 24.7218 349.572 24.3298 350.012C23.9378 350.452 23.7418 351.04 23.7418 351.776C23.7418 352.512 23.9378 353.1 24.3298 353.54C24.7218 353.98 25.2338 354.2 25.8658 354.2C26.2578 354.2 26.6058 354.108 26.9098 353.924C27.2218 353.74 27.4618 353.472 27.6298 353.12H29.8858C29.6458 354.032 29.1698 354.752 28.4578 355.28C27.7458 355.8 26.8898 356.06 25.8898 356.06C25.0738 356.06 24.3418 355.88 23.6938 355.52C23.0538 355.152 22.5538 354.644 22.1938 353.996C21.8338 353.348 21.6538 352.608 21.6538 351.776ZM30.7344 352.64C30.7344 351.952 30.8624 351.348 31.1184 350.828C31.3824 350.308 31.7384 349.908 32.1864 349.628C32.6344 349.348 33.1344 349.208 33.6864 349.208C34.1584 349.208 34.5704 349.304 34.9224 349.496C35.2824 349.688 35.5584 349.94 35.7504 350.252V349.304H37.8024V356H35.7504V355.052C35.5504 355.364 35.2704 355.616 34.9104 355.808C34.5584 356 34.1464 356.096 33.6744 356.096C33.1304 356.096 32.6344 355.956 32.1864 355.676C31.7384 355.388 31.3824 354.984 31.1184 354.464C30.8624 353.936 30.7344 353.328 30.7344 352.64ZM35.7504 352.652C35.7504 352.14 35.6064 351.736 35.3184 351.44C35.0384 351.144 34.6944 350.996 34.2864 350.996C33.8784 350.996 33.5304 351.144 33.2424 351.44C32.9624 351.728 32.8224 352.128 32.8224 352.64C32.8224 353.152 32.9624 353.56 33.2424 353.864C33.5304 354.16 33.8784 354.308 34.2864 354.308C34.6944 354.308 35.0384 354.16 35.3184 353.864C35.6064 353.568 35.7504 353.164 35.7504 352.652ZM42.647 351.008H41.543V356H39.491V351.008H38.747V349.304H39.491V349.112C39.491 348.288 39.727 347.664 40.199 347.24C40.671 346.808 41.363 346.592 42.275 346.592C42.427 346.592 42.539 346.596 42.611 346.604V348.344C42.219 348.32 41.943 348.376 41.783 348.512C41.623 348.648 41.543 348.892 41.543 349.244V349.304H42.647V351.008ZM49.9232 352.544C49.9232 352.736 49.9112 352.936 49.8872 353.144H45.2432C45.2752 353.56 45.4072 353.88 45.6392 354.104C45.8792 354.32 46.1712 354.428 46.5152 354.428C47.0272 354.428 47.3832 354.212 47.5832 353.78H49.7672C49.6552 354.22 49.4512 354.616 49.1552 354.968C48.8672 355.32 48.5032 355.596 48.0632 355.796C47.6232 355.996 47.1312 356.096 46.5872 356.096C45.9312 356.096 45.3472 355.956 44.8352 355.676C44.3232 355.396 43.9232 354.996 43.6352 354.476C43.3472 353.956 43.2032 353.348 43.2032 352.652C43.2032 351.956 43.3432 351.348 43.6232 350.828C43.9112 350.308 44.3112 349.908 44.8232 349.628C45.3352 349.348 45.9232 349.208 46.5872 349.208C47.2352 349.208 47.8112 349.344 48.3152 349.616C48.8192 349.888 49.2112 350.276 49.4912 350.78C49.7792 351.284 49.9232 351.872 49.9232 352.544ZM47.8232 352.004C47.8232 351.652 47.7032 351.372 47.4632 351.164C47.2232 350.956 46.9232 350.852 46.5632 350.852C46.2192 350.852 45.9272 350.952 45.6872 351.152C45.4552 351.352 45.3112 351.636 45.2552 352.004H47.8232ZM47.9672 347.588L45.0752 348.8V347.384L47.9672 345.992V347.588ZM53.1407 352.664C53.1407 352 53.2767 351.408 53.5487 350.888C53.8287 350.368 54.2007 349.964 54.6647 349.676C55.1367 349.38 55.6487 349.232 56.2007 349.232C56.6247 349.232 57.0047 349.308 57.3407 349.46C57.6767 349.604 57.9487 349.808 58.1567 350.072V349.304H60.2087V359.192H58.1567V355.16C57.9247 355.44 57.6407 355.664 57.3047 355.832C56.9767 356 56.6007 356.084 56.1767 356.084C55.6327 356.084 55.1287 355.94 54.6647 355.652C54.2007 355.364 53.8287 354.96 53.5487 354.44C53.2767 353.92 53.1407 353.328 53.1407 352.664ZM58.1567 352.652C58.1567 352.292 58.0847 351.992 57.9407 351.752C57.8047 351.504 57.6247 351.32 57.4007 351.2C57.1767 351.072 56.9407 351.008 56.6927 351.008C56.4527 351.008 56.2207 351.072 55.9967 351.2C55.7727 351.32 55.5887 351.504 55.4447 351.752C55.3007 352 55.2287 352.304 55.2287 352.664C55.2287 353.024 55.3007 353.328 55.4447 353.576C55.5887 353.816 55.7727 354 55.9967 354.128C56.2207 354.248 56.4527 354.308 56.6927 354.308C56.9327 354.308 57.1647 354.248 57.3887 354.128C57.6207 354 57.8047 353.812 57.9407 353.564C58.0847 353.316 58.1567 353.012 58.1567 352.652ZM68.3052 349.304V356H66.2532V355.088C66.0452 355.384 65.7612 355.624 65.4012 355.808C65.0492 355.984 64.6572 356.072 64.2252 356.072C63.7132 356.072 63.2612 355.96 62.8692 355.736C62.4772 355.504 62.1732 355.172 61.9572 354.74C61.7412 354.308 61.6332 353.8 61.6332 353.216V349.304H63.6732V352.94C63.6732 353.388 63.7892 353.736 64.0212 353.984C64.2532 354.232 64.5652 354.356 64.9572 354.356C65.3572 354.356 65.6732 354.232 65.9052 353.984C66.1372 353.736 66.2532 353.388 66.2532 352.94V349.304H68.3052ZM76.0912 352.544C76.0912 352.736 76.0792 352.936 76.0552 353.144H71.4112C71.4432 353.56 71.5752 353.88 71.8072 354.104C72.0472 354.32 72.3392 354.428 72.6832 354.428C73.1952 354.428 73.5512 354.212 73.7512 353.78H75.9352C75.8232 354.22 75.6192 354.616 75.3232 354.968C75.0352 355.32 74.6712 355.596 74.2312 355.796C73.7912 355.996 73.2992 356.096 72.7552 356.096C72.0992 356.096 71.5152 355.956 71.0032 355.676C70.4912 355.396 70.0912 354.996 69.8032 354.476C69.5152 353.956 69.3712 353.348 69.3712 352.652C69.3712 351.956 69.5112 351.348 69.7912 350.828C70.0792 350.308 70.4792 349.908 70.9912 349.628C71.5032 349.348 72.0912 349.208 72.7552 349.208C73.4032 349.208 73.9792 349.344 74.4832 349.616C74.9872 349.888 75.3792 350.276 75.6592 350.78C75.9472 351.284 76.0912 351.872 76.0912 352.544ZM73.9912 352.004C73.9912 351.652 73.8712 351.372 73.6312 351.164C73.3912 350.956 73.0912 350.852 72.7312 350.852C72.3872 350.852 72.0952 350.952 71.8552 351.152C71.6232 351.352 71.4792 351.636 71.4232 352.004H73.9912ZM81.2537 349.232C82.0377 349.232 82.6617 349.488 83.1257 350C83.5977 350.504 83.8337 351.2 83.8337 352.088V356H81.7937V352.364C81.7937 351.916 81.6777 351.568 81.4457 351.32C81.2137 351.072 80.9017 350.948 80.5097 350.948C80.1177 350.948 79.8057 351.072 79.5737 351.32C79.3417 351.568 79.2257 351.916 79.2257 352.364V356H77.1737V349.304H79.2257V350.192C79.4337 349.896 79.7137 349.664 80.0657 349.496C80.4177 349.32 80.8137 349.232 81.2537 349.232ZM88.9916 354.26V356H87.9476C87.2036 356 86.6236 355.82 86.2076 355.46C85.7916 355.092 85.5836 354.496 85.5836 353.672V351.008H84.7676V349.304H85.5836V347.672H87.6356V349.304H88.9796V351.008H87.6356V353.696C87.6356 353.896 87.6836 354.04 87.7796 354.128C87.8756 354.216 88.0356 354.26 88.2596 354.26H88.9916ZM91.1666 348.608C90.8066 348.608 90.5106 348.504 90.2786 348.296C90.0546 348.08 89.9426 347.816 89.9426 347.504C89.9426 347.184 90.0546 346.92 90.2786 346.712C90.5106 346.496 90.8066 346.388 91.1666 346.388C91.5186 346.388 91.8066 346.496 92.0306 346.712C92.2626 346.92 92.3786 347.184 92.3786 347.504C92.3786 347.816 92.2626 348.08 92.0306 348.296C91.8066 348.504 91.5186 348.608 91.1666 348.608ZM92.1866 349.304V356H90.1346V349.304H92.1866ZM97.7537 349.232C98.5377 349.232 99.1617 349.488 99.6257 350C100.098 350.504 100.334 351.2 100.334 352.088V356H98.2937V352.364C98.2937 351.916 98.1777 351.568 97.9457 351.32C97.7137 351.072 97.4017 350.948 97.0097 350.948C96.6177 350.948 96.3057 351.072 96.0737 351.32C95.8417 351.568 95.7257 351.916 95.7257 352.364V356H93.6737V349.304H95.7257V350.192C95.9337 349.896 96.2137 349.664 96.5657 349.496C96.9177 349.32 97.3137 349.232 97.7537 349.232ZM105.876 349.232C106.644 349.232 107.26 349.488 107.724 350C108.188 350.504 108.42 351.2 108.42 352.088V356H106.38V352.364C106.38 351.916 106.264 351.568 106.032 351.32C105.8 351.072 105.488 350.948 105.096 350.948C104.704 350.948 104.392 351.072 104.16 351.32C103.928 351.568 103.812 351.916 103.812 352.364V356H101.76V347.12H103.812V350.204C104.02 349.908 104.304 349.672 104.664 349.496C105.024 349.32 105.428 349.232 105.876 349.232ZM112.894 356.096C112.238 356.096 111.646 355.956 111.118 355.676C110.598 355.396 110.186 354.996 109.882 354.476C109.586 353.956 109.438 353.348 109.438 352.652C109.438 351.964 109.59 351.36 109.894 350.84C110.198 350.312 110.614 349.908 111.142 349.628C111.67 349.348 112.262 349.208 112.918 349.208C113.574 349.208 114.166 349.348 114.694 349.628C115.222 349.908 115.638 350.312 115.942 350.84C116.246 351.36 116.398 351.964 116.398 352.652C116.398 353.34 116.242 353.948 115.93 354.476C115.626 354.996 115.206 355.396 114.67 355.676C114.142 355.956 113.55 356.096 112.894 356.096ZM112.894 354.32C113.286 354.32 113.618 354.176 113.89 353.888C114.17 353.6 114.31 353.188 114.31 352.652C114.31 352.116 114.174 351.704 113.902 351.416C113.638 351.128 113.31 350.984 112.918 350.984C112.518 350.984 112.186 351.128 111.922 351.416C111.658 351.696 111.526 352.108 111.526 352.652C111.526 353.188 111.654 353.6 111.91 353.888C112.174 354.176 112.502 354.32 112.894 354.32ZM36.336 370.64C36.336 369.952 36.464 369.348 36.72 368.828C36.984 368.308 37.34 367.908 37.788 367.628C38.236 367.348 38.736 367.208 39.288 367.208C39.728 367.208 40.128 367.3 40.488 367.484C40.856 367.668 41.144 367.916 41.352 368.228V365.12H43.404V374H41.352V373.04C41.16 373.36 40.884 373.616 40.524 373.808C40.172 374 39.76 374.096 39.288 374.096C38.736 374.096 38.236 373.956 37.788 373.676C37.34 373.388 36.984 372.984 36.72 372.464C36.464 371.936 36.336 371.328 36.336 370.64ZM41.352 370.652C41.352 370.14 41.208 369.736 40.92 369.44C40.64 369.144 40.296 368.996 39.888 368.996C39.48 368.996 39.132 369.144 38.844 369.44C38.564 369.728 38.424 370.128 38.424 370.64C38.424 371.152 38.564 371.56 38.844 371.864C39.132 372.16 39.48 372.308 39.888 372.308C40.296 372.308 40.64 372.16 40.92 371.864C41.208 371.568 41.352 371.164 41.352 370.652ZM44.4805 370.64C44.4805 369.952 44.6085 369.348 44.8645 368.828C45.1285 368.308 45.4845 367.908 45.9325 367.628C46.3805 367.348 46.8805 367.208 47.4325 367.208C47.9045 367.208 48.3165 367.304 48.6685 367.496C49.0285 367.688 49.3045 367.94 49.4965 368.252V367.304H51.5485V374H49.4965V373.052C49.2965 373.364 49.0165 373.616 48.6565 373.808C48.3045 374 47.8925 374.096 47.4205 374.096C46.8765 374.096 46.3805 373.956 45.9325 373.676C45.4845 373.388 45.1285 372.984 44.8645 372.464C44.6085 371.936 44.4805 371.328 44.4805 370.64ZM49.4965 370.652C49.4965 370.14 49.3525 369.736 49.0645 369.44C48.7845 369.144 48.4405 368.996 48.0325 368.996C47.6245 368.996 47.2765 369.144 46.9885 369.44C46.7085 369.728 46.5685 370.128 46.5685 370.64C46.5685 371.152 46.7085 371.56 46.9885 371.864C47.2765 372.16 47.6245 372.308 48.0325 372.308C48.4405 372.308 48.7845 372.16 49.0645 371.864C49.3525 371.568 49.4965 371.164 49.4965 370.652ZM58.12 367.208C58.592 367.208 59.004 367.304 59.356 367.496C59.716 367.688 59.992 367.94 60.184 368.252V367.304H62.236V373.988C62.236 374.604 62.112 375.16 61.864 375.656C61.624 376.16 61.252 376.56 60.748 376.856C60.252 377.152 59.632 377.3 58.888 377.3C57.896 377.3 57.092 377.064 56.476 376.592C55.86 376.128 55.508 375.496 55.42 374.696H57.448C57.512 374.952 57.664 375.152 57.904 375.296C58.144 375.448 58.44 375.524 58.792 375.524C59.216 375.524 59.552 375.4 59.8 375.152C60.056 374.912 60.184 374.524 60.184 373.988V373.04C59.984 373.352 59.708 373.608 59.356 373.808C59.004 374 58.592 374.096 58.12 374.096C57.568 374.096 57.068 373.956 56.62 373.676C56.172 373.388 55.816 372.984 55.552 372.464C55.296 371.936 55.168 371.328 55.168 370.64C55.168 369.952 55.296 369.348 55.552 368.828C55.816 368.308 56.172 367.908 56.62 367.628C57.068 367.348 57.568 367.208 58.12 367.208ZM60.184 370.652C60.184 370.14 60.04 369.736 59.752 369.44C59.472 369.144 59.128 368.996 58.72 368.996C58.312 368.996 57.964 369.144 57.676 369.44C57.396 369.728 57.256 370.128 57.256 370.64C57.256 371.152 57.396 371.56 57.676 371.864C57.964 372.16 58.312 372.308 58.72 372.308C59.128 372.308 59.472 372.16 59.752 371.864C60.04 371.568 60.184 371.164 60.184 370.652ZM63.3126 370.64C63.3126 369.952 63.4406 369.348 63.6966 368.828C63.9606 368.308 64.3166 367.908 64.7646 367.628C65.2126 367.348 65.7126 367.208 66.2646 367.208C66.7366 367.208 67.1486 367.304 67.5006 367.496C67.8606 367.688 68.1366 367.94 68.3286 368.252V367.304H70.3806V374H68.3286V373.052C68.1286 373.364 67.8486 373.616 67.4886 373.808C67.1366 374 66.7246 374.096 66.2526 374.096C65.7086 374.096 65.2126 373.956 64.7646 373.676C64.3166 373.388 63.9606 372.984 63.6966 372.464C63.4406 371.936 63.3126 371.328 63.3126 370.64ZM68.3286 370.652C68.3286 370.14 68.1846 369.736 67.8966 369.44C67.6166 369.144 67.2726 368.996 66.8646 368.996C66.4566 368.996 66.1086 369.144 65.8206 369.44C65.5406 369.728 65.4006 370.128 65.4006 370.64C65.4006 371.152 65.5406 371.56 65.8206 371.864C66.1086 372.16 66.4566 372.308 66.8646 372.308C67.2726 372.308 67.6166 372.16 67.8966 371.864C68.1846 371.568 68.3286 371.164 68.3286 370.652ZM73.9171 368.42C74.1571 368.052 74.4571 367.764 74.8171 367.556C75.1771 367.34 75.5771 367.232 76.0171 367.232V369.404H75.4531C74.9411 369.404 74.5571 369.516 74.3011 369.74C74.0451 369.956 73.9171 370.34 73.9171 370.892V374H71.8651V367.304H73.9171V368.42ZM79.0499 368.42C79.2899 368.052 79.5899 367.764 79.9499 367.556C80.3099 367.34 80.7099 367.232 81.1499 367.232V369.404H80.5859C80.0739 369.404 79.6899 369.516 79.4339 369.74C79.1779 369.956 79.0499 370.34 79.0499 370.892V374H76.9979V367.304H79.0499V368.42ZM81.7227 370.64C81.7227 369.952 81.8507 369.348 82.1067 368.828C82.3707 368.308 82.7267 367.908 83.1747 367.628C83.6227 367.348 84.1227 367.208 84.6747 367.208C85.1467 367.208 85.5587 367.304 85.9107 367.496C86.2707 367.688 86.5467 367.94 86.7387 368.252V367.304H88.7907V374H86.7387V373.052C86.5387 373.364 86.2587 373.616 85.8987 373.808C85.5467 374 85.1347 374.096 84.6627 374.096C84.1187 374.096 83.6227 373.956 83.1747 373.676C82.7267 373.388 82.3707 372.984 82.1067 372.464C81.8507 371.936 81.7227 371.328 81.7227 370.64ZM86.7387 370.652C86.7387 370.14 86.5947 369.736 86.3067 369.44C86.0267 369.144 85.6827 368.996 85.2747 368.996C84.8667 368.996 84.5187 369.144 84.2307 369.44C83.9507 369.728 83.8107 370.128 83.8107 370.64C83.8107 371.152 83.9507 371.56 84.2307 371.864C84.5187 372.16 84.8667 372.308 85.2747 372.308C85.6827 372.308 86.0267 372.16 86.3067 371.864C86.5947 371.568 86.7387 371.164 86.7387 370.652ZM93.6353 369.008H92.5312V374H90.4793V369.008H89.7353V367.304H90.4793V367.112C90.4793 366.288 90.7153 365.664 91.1873 365.24C91.6593 364.808 92.3513 364.592 93.2633 364.592C93.4153 364.592 93.5273 364.596 93.5993 364.604V366.344C93.2073 366.32 92.9313 366.376 92.7713 366.512C92.6113 366.648 92.5312 366.892 92.5312 367.244V367.304H93.6353V369.008ZM94.1915 370.64C94.1915 369.952 94.3195 369.348 94.5755 368.828C94.8395 368.308 95.1955 367.908 95.6435 367.628C96.0915 367.348 96.5915 367.208 97.1435 367.208C97.6155 367.208 98.0275 367.304 98.3795 367.496C98.7395 367.688 99.0155 367.94 99.2075 368.252V367.304H101.259V374H99.2075V373.052C99.0075 373.364 98.7275 373.616 98.3675 373.808C98.0155 374 97.6035 374.096 97.1315 374.096C96.5875 374.096 96.0915 373.956 95.6435 373.676C95.1955 373.388 94.8395 372.984 94.5755 372.464C94.3195 371.936 94.1915 371.328 94.1915 370.64ZM99.2075 370.652C99.2075 370.14 99.0635 369.736 98.7755 369.44C98.4955 369.144 98.1515 368.996 97.7435 368.996C97.3355 368.996 96.9875 369.144 96.6995 369.44C96.4195 369.728 96.2795 370.128 96.2795 370.64C96.2795 371.152 96.4195 371.56 96.6995 371.864C96.9875 372.16 97.3355 372.308 97.7435 372.308C98.1515 372.308 98.4955 372.16 98.7755 371.864C99.0635 371.568 99.2075 371.164 99.2075 370.652Z" fill="#8A90A2"/>
<g clip-path="url(#clip0_265_22)">
<path d="M89.75 296.333H92.2917C94.988 296.333 97.574 297.405 99.4806 299.311C101.387 301.218 102.458 303.804 102.458 306.5C102.458 309.196 101.387 311.782 99.4806 313.689C97.574 315.596 94.988 316.667 92.2917 316.667H89.75" stroke="#2D1762" stroke-width="6" stroke-linecap="round" stroke-linejoin="round"/>
<path d="M49.0833 296.333H89.75V319.208C89.75 321.905 88.6789 324.491 86.7722 326.397C84.8656 328.304 82.2797 329.375 79.5833 329.375H59.25C56.5536 329.375 53.9677 328.304 52.0611 326.397C50.1545 324.491 49.0833 321.905 49.0833 319.208V296.333Z" stroke="#2D1762" stroke-width="6" stroke-linecap="round" stroke-linejoin="round"/>
<path d="M59.25 278.542V286.167" stroke="#2D1762" stroke-width="6" stroke-linecap="round" stroke-linejoin="round"/>
<path d="M69.4167 278.542V286.167" stroke="#2D1762" stroke-width="6" stroke-linecap="round" stroke-linejoin="round"/>
<path d="M79.5833 278.542V286.167" stroke="#2D1762" stroke-width="6" stroke-linecap="round" stroke-linejoin="round"/>
</g>
<path d="M252 72C252 54.3269 266.327 40 284 40H370C387.673 40 402 54.3269 402 72V158C402 175.673 387.673 190 370 190H252V72Z" fill="white"/>
<path d="M295.023 134.576V136.22H292.791V143H290.739V136.22H288.507V134.576H295.023ZM298.105 137.42C298.345 137.052 298.645 136.764 299.005 136.556C299.365 136.34 299.765 136.232 300.205 136.232V138.404H299.641C299.129 138.404 298.745 138.516 298.489 138.74C298.233 138.956 298.105 139.34 298.105 139.892V143H296.053V136.304H298.105V137.42ZM300.777 139.64C300.777 138.952 300.905 138.348 301.161 137.828C301.425 137.308 301.781 136.908 302.229 136.628C302.677 136.348 303.177 136.208 303.729 136.208C304.201 136.208 304.613 136.304 304.965 136.496C305.325 136.688 305.601 136.94 305.793 137.252V136.304H307.845V143H305.793V142.052C305.593 142.364 305.313 142.616 304.953 142.808C304.601 143 304.189 143.096 303.717 143.096C303.173 143.096 302.677 142.956 302.229 142.676C301.781 142.388 301.425 141.984 301.161 141.464C300.905 140.936 300.777 140.328 300.777 139.64ZM305.793 139.652C305.793 139.14 305.649 138.736 305.361 138.44C305.081 138.144 304.737 137.996 304.329 137.996C303.921 137.996 303.573 138.144 303.285 138.44C303.005 138.728 302.865 139.128 302.865 139.64C302.865 140.152 303.005 140.56 303.285 140.864C303.573 141.16 303.921 141.308 304.329 141.308C304.737 141.308 305.081 141.16 305.361 140.864C305.649 140.568 305.793 140.164 305.793 139.652ZM311.382 137.252C311.574 136.94 311.85 136.688 312.21 136.496C312.57 136.304 312.982 136.208 313.446 136.208C313.998 136.208 314.498 136.348 314.946 136.628C315.394 136.908 315.746 137.308 316.002 137.828C316.266 138.348 316.398 138.952 316.398 139.64C316.398 140.328 316.266 140.936 316.002 141.464C315.746 141.984 315.394 142.388 314.946 142.676C314.498 142.956 313.998 143.096 313.446 143.096C312.974 143.096 312.562 143.004 312.21 142.82C311.858 142.628 311.582 142.376 311.382 142.064V143H309.33V134.12H311.382V137.252ZM314.31 139.64C314.31 139.128 314.166 138.728 313.878 138.44C313.598 138.144 313.25 137.996 312.834 137.996C312.426 137.996 312.078 138.144 311.79 138.44C311.51 138.736 311.37 139.14 311.37 139.652C311.37 140.164 311.51 140.568 311.79 140.864C312.078 141.16 312.426 141.308 312.834 141.308C313.242 141.308 313.59 141.16 313.878 140.864C314.166 140.56 314.31 140.152 314.31 139.64ZM317.066 139.64C317.066 138.952 317.194 138.348 317.45 137.828C317.714 137.308 318.07 136.908 318.518 136.628C318.966 136.348 319.466 136.208 320.018 136.208C320.49 136.208 320.902 136.304 321.254 136.496C321.614 136.688 321.89 136.94 322.082 137.252V136.304H324.134V143H322.082V142.052C321.882 142.364 321.602 142.616 321.242 142.808C320.89 143 320.478 143.096 320.006 143.096C319.462 143.096 318.966 142.956 318.518 142.676C318.07 142.388 317.714 141.984 317.45 141.464C317.194 140.936 317.066 140.328 317.066 139.64ZM322.082 139.652C322.082 139.14 321.938 138.736 321.65 138.44C321.37 138.144 321.026 137.996 320.618 137.996C320.21 137.996 319.862 138.144 319.574 138.44C319.294 138.728 319.154 139.128 319.154 139.64C319.154 140.152 319.294 140.56 319.574 140.864C319.862 141.16 320.21 141.308 320.618 141.308C321.026 141.308 321.37 141.16 321.65 140.864C321.938 140.568 322.082 140.164 322.082 139.652ZM327.671 134.12V143H325.619V134.12H327.671ZM333.274 136.232C334.042 136.232 334.658 136.488 335.122 137C335.586 137.504 335.818 138.2 335.818 139.088V143H333.778V139.364C333.778 138.916 333.662 138.568 333.43 138.32C333.198 138.072 332.886 137.948 332.494 137.948C332.102 137.948 331.79 138.072 331.558 138.32C331.326 138.568 331.21 138.916 331.21 139.364V143H329.158V134.12H331.21V137.204C331.418 136.908 331.702 136.672 332.062 136.496C332.422 136.32 332.826 136.232 333.274 136.232ZM340.292 143.096C339.636 143.096 339.044 142.956 338.516 142.676C337.996 142.396 337.584 141.996 337.28 141.476C336.984 140.956 336.836 140.348 336.836 139.652C336.836 138.964 336.988 138.36 337.292 137.84C337.596 137.312 338.012 136.908 338.54 136.628C339.068 136.348 339.66 136.208 340.316 136.208C340.972 136.208 341.564 136.348 342.092 136.628C342.62 136.908 343.036 137.312 343.34 137.84C343.644 138.36 343.796 138.964 343.796 139.652C343.796 140.34 343.64 140.948 343.328 141.476C343.024 141.996 342.604 142.396 342.068 142.676C341.54 142.956 340.948 143.096 340.292 143.096ZM340.292 141.32C340.684 141.32 341.016 141.176 341.288 140.888C341.568 140.6 341.708 140.188 341.708 139.652C341.708 139.116 341.572 138.704 341.3 138.416C341.036 138.128 340.708 137.984 340.316 137.984C339.916 137.984 339.584 138.128 339.32 138.416C339.056 138.696 338.924 139.108 338.924 139.652C338.924 140.188 339.052 140.6 339.308 140.888C339.572 141.176 339.9 141.32 340.292 141.32ZM353.74 139.544C353.74 139.736 353.728 139.936 353.704 140.144H349.06C349.092 140.56 349.224 140.88 349.456 141.104C349.696 141.32 349.988 141.428 350.332 141.428C350.844 141.428 351.2 141.212 351.4 140.78H353.584C353.472 141.22 353.268 141.616 352.972 141.968C352.684 142.32 352.32 142.596 351.88 142.796C351.44 142.996 350.948 143.096 350.404 143.096C349.748 143.096 349.164 142.956 348.652 142.676C348.14 142.396 347.74 141.996 347.452 141.476C347.164 140.956 347.02 140.348 347.02 139.652C347.02 138.956 347.16 138.348 347.44 137.828C347.728 137.308 348.128 136.908 348.64 136.628C349.152 136.348 349.74 136.208 350.404 136.208C351.052 136.208 351.628 136.344 352.132 136.616C352.636 136.888 353.028 137.276 353.308 137.78C353.596 138.284 353.74 138.872 353.74 139.544ZM351.64 139.004C351.64 138.652 351.52 138.372 351.28 138.164C351.04 137.956 350.74 137.852 350.38 137.852C350.036 137.852 349.744 137.952 349.504 138.152C349.272 138.352 349.128 138.636 349.072 139.004H351.64ZM363.366 136.232C364.198 136.232 364.858 136.484 365.346 136.988C365.842 137.492 366.09 138.192 366.09 139.088V143H364.05V139.364C364.05 138.932 363.934 138.6 363.702 138.368C363.478 138.128 363.166 138.008 362.766 138.008C362.366 138.008 362.05 138.128 361.818 138.368C361.594 138.6 361.482 138.932 361.482 139.364V143H359.442V139.364C359.442 138.932 359.326 138.6 359.094 138.368C358.87 138.128 358.558 138.008 358.158 138.008C357.758 138.008 357.442 138.128 357.21 138.368C356.986 138.6 356.874 138.932 356.874 139.364V143H354.822V136.304H356.874V137.144C357.082 136.864 357.354 136.644 357.69 136.484C358.026 136.316 358.406 136.232 358.83 136.232C359.334 136.232 359.782 136.34 360.174 136.556C360.574 136.772 360.886 137.08 361.11 137.48C361.342 137.112 361.658 136.812 362.058 136.58C362.458 136.348 362.894 136.232 363.366 136.232ZM313.204 157.544C313.204 157.736 313.192 157.936 313.168 158.144H308.524C308.556 158.56 308.688 158.88 308.92 159.104C309.16 159.32 309.452 159.428 309.796 159.428C310.308 159.428 310.664 159.212 310.864 158.78H313.048C312.936 159.22 312.732 159.616 312.436 159.968C312.148 160.32 311.784 160.596 311.344 160.796C310.904 160.996 310.412 161.096 309.868 161.096C309.212 161.096 308.628 160.956 308.116 160.676C307.604 160.396 307.204 159.996 306.916 159.476C306.628 158.956 306.484 158.348 306.484 157.652C306.484 156.956 306.624 156.348 306.904 155.828C307.192 155.308 307.592 154.908 308.104 154.628C308.616 154.348 309.204 154.208 309.868 154.208C310.516 154.208 311.092 154.344 311.596 154.616C312.1 154.888 312.492 155.276 312.772 155.78C313.06 156.284 313.204 156.872 313.204 157.544ZM311.104 157.004C311.104 156.652 310.984 156.372 310.744 156.164C310.504 155.956 310.204 155.852 309.844 155.852C309.5 155.852 309.208 155.952 308.968 156.152C308.736 156.352 308.592 156.636 308.536 157.004H311.104ZM313.879 157.664C313.879 157 314.015 156.408 314.287 155.888C314.567 155.368 314.939 154.964 315.403 154.676C315.875 154.38 316.387 154.232 316.939 154.232C317.363 154.232 317.743 154.308 318.079 154.46C318.415 154.604 318.687 154.808 318.895 155.072V154.304H320.947V164.192H318.895V160.16C318.663 160.44 318.379 160.664 318.043 160.832C317.715 161 317.339 161.084 316.915 161.084C316.371 161.084 315.867 160.94 315.403 160.652C314.939 160.364 314.567 159.96 314.287 159.44C314.015 158.92 313.879 158.328 313.879 157.664ZM318.895 157.652C318.895 157.292 318.823 156.992 318.679 156.752C318.543 156.504 318.363 156.32 318.139 156.2C317.915 156.072 317.679 156.008 317.431 156.008C317.191 156.008 316.959 156.072 316.735 156.2C316.511 156.32 316.327 156.504 316.183 156.752C316.039 157 315.967 157.304 315.967 157.664C315.967 158.024 316.039 158.328 316.183 158.576C316.327 158.816 316.511 159 316.735 159.128C316.959 159.248 317.191 159.308 317.431 159.308C317.671 159.308 317.903 159.248 318.127 159.128C318.359 159 318.543 158.812 318.679 158.564C318.823 158.316 318.895 158.012 318.895 157.652ZM329.044 154.304V161H326.992V160.088C326.784 160.384 326.5 160.624 326.14 160.808C325.788 160.984 325.396 161.072 324.964 161.072C324.452 161.072 324 160.96 323.608 160.736C323.216 160.504 322.912 160.172 322.696 159.74C322.48 159.308 322.372 158.8 322.372 158.216V154.304H324.412V157.94C324.412 158.388 324.528 158.736 324.76 158.984C324.992 159.232 325.304 159.356 325.696 159.356C326.096 159.356 326.412 159.232 326.644 158.984C326.876 158.736 326.992 158.388 326.992 157.94V154.304H329.044ZM331.549 153.608C331.189 153.608 330.893 153.504 330.661 153.296C330.437 153.08 330.325 152.816 330.325 152.504C330.325 152.184 330.437 151.92 330.661 151.712C330.893 151.496 331.189 151.388 331.549 151.388C331.901 151.388 332.189 151.496 332.413 151.712C332.645 151.92 332.761 152.184 332.761 152.504C332.761 152.816 332.645 153.08 332.413 153.296C332.189 153.504 331.901 153.608 331.549 153.608ZM332.569 154.304V161H330.517V154.304H332.569ZM336.109 155.252C336.309 154.94 336.585 154.688 336.937 154.496C337.289 154.304 337.701 154.208 338.173 154.208C338.725 154.208 339.225 154.348 339.673 154.628C340.121 154.908 340.473 155.308 340.729 155.828C340.993 156.348 341.125 156.952 341.125 157.64C341.125 158.328 340.993 158.936 340.729 159.464C340.473 159.984 340.121 160.388 339.673 160.676C339.225 160.956 338.725 161.096 338.173 161.096C337.709 161.096 337.297 161 336.937 160.808C336.585 160.616 336.309 160.368 336.109 160.064V164.192H334.057V154.304H336.109V155.252ZM339.037 157.64C339.037 157.128 338.893 156.728 338.605 156.44C338.325 156.144 337.977 155.996 337.561 155.996C337.153 155.996 336.805 156.144 336.517 156.44C336.237 156.736 336.097 157.14 336.097 157.652C336.097 158.164 336.237 158.568 336.517 158.864C336.805 159.16 337.153 159.308 337.561 159.308C337.969 159.308 338.317 159.16 338.605 158.864C338.893 158.56 339.037 158.152 339.037 157.64ZM348.513 157.544C348.513 157.736 348.501 157.936 348.477 158.144H343.833C343.865 158.56 343.997 158.88 344.229 159.104C344.469 159.32 344.761 159.428 345.105 159.428C345.617 159.428 345.973 159.212 346.173 158.78H348.357C348.245 159.22 348.041 159.616 347.745 159.968C347.457 160.32 347.093 160.596 346.653 160.796C346.213 160.996 345.721 161.096 345.177 161.096C344.521 161.096 343.937 160.956 343.425 160.676C342.913 160.396 342.513 159.996 342.225 159.476C341.937 158.956 341.793 158.348 341.793 157.652C341.793 156.956 341.933 156.348 342.213 155.828C342.501 155.308 342.901 154.908 343.413 154.628C343.925 154.348 344.513 154.208 345.177 154.208C345.825 154.208 346.401 154.344 346.905 154.616C347.409 154.888 347.801 155.276 348.081 155.78C348.369 156.284 348.513 156.872 348.513 157.544ZM346.413 157.004C346.413 156.652 346.293 156.372 346.053 156.164C345.813 155.956 345.513 155.852 345.153 155.852C344.809 155.852 344.517 155.952 344.277 156.152C344.045 156.352 343.901 156.636 343.845 157.004H346.413Z" fill="#8A90A2"/>
<g clip-path="url(#clip1_265_22)">
<path d="M339.208 116.375V111.292C339.208 108.595 338.137 106.009 336.231 104.103C334.324 102.196 331.738 101.125 329.042 101.125H308.708C306.012 101.125 303.426 102.196 301.519 104.103C299.613 106.009 298.542 108.595 298.542 111.292V116.375" stroke="#2D1762" stroke-width="6" stroke-linecap="round" stroke-linejoin="round"/>
<path d="M318.875 90.9583C324.49 90.9583 329.042 86.4066 329.042 80.7917C329.042 75.1768 324.49 70.625 318.875 70.625C313.26 70.625 308.708 75.1768 308.708 80.7917C308.708 86.4066 313.26 90.9583 318.875 90.9583Z" stroke="#2D1762" stroke-width="6" stroke-linecap="round" stroke-linejoin="round"/>
<path d="M354.458 116.375V111.292C354.457 109.039 353.707 106.851 352.327 105.07C350.947 103.29 349.014 102.019 346.833 101.455" stroke="#2D1762" stroke-width="6" stroke-linecap="round" stroke-linejoin="round"/>
<path d="M336.667 70.9554C338.854 71.5154 340.792 72.7872 342.176 74.5705C343.56 76.3537 344.312 78.547 344.312 80.8044C344.312 83.0618 343.56 85.2551 342.176 87.0383C340.792 88.8216 338.854 90.0934 336.667 90.6534" stroke="#2D1762" stroke-width="6" stroke-linecap="round" stroke-linejoin="round"/>
</g>
<path d="M252 292H370C387.673 292 402 306.327 402 324V410C402 427.673 387.673 442 370 442H284C266.327 442 252 427.673 252 410V292Z" fill="white"/>
<path d="M286.716 387.776C286.716 386.944 286.896 386.204 287.256 385.556C287.616 384.9 288.116 384.392 288.756 384.032C289.404 383.664 290.136 383.48 290.952 383.48C291.952 383.48 292.808 383.744 293.52 384.272C294.232 384.8 294.708 385.52 294.948 386.432H292.692C292.524 386.08 292.284 385.812 291.972 385.628C291.668 385.444 291.32 385.352 290.928 385.352C290.296 385.352 289.784 385.572 289.392 386.012C289 386.452 288.804 387.04 288.804 387.776C288.804 388.512 289 389.1 289.392 389.54C289.784 389.98 290.296 390.2 290.928 390.2C291.32 390.2 291.668 390.108 291.972 389.924C292.284 389.74 292.524 389.472 292.692 389.12H294.948C294.708 390.032 294.232 390.752 293.52 391.28C292.808 391.8 291.952 392.06 290.952 392.06C290.136 392.06 289.404 391.88 288.756 391.52C288.116 391.152 287.616 390.644 287.256 389.996C286.896 389.348 286.716 388.608 286.716 387.776ZM299.253 392.096C298.597 392.096 298.005 391.956 297.477 391.676C296.957 391.396 296.545 390.996 296.241 390.476C295.945 389.956 295.797 389.348 295.797 388.652C295.797 387.964 295.949 387.36 296.253 386.84C296.557 386.312 296.973 385.908 297.501 385.628C298.029 385.348 298.621 385.208 299.277 385.208C299.933 385.208 300.525 385.348 301.053 385.628C301.581 385.908 301.997 386.312 302.301 386.84C302.605 387.36 302.757 387.964 302.757 388.652C302.757 389.34 302.601 389.948 302.289 390.476C301.985 390.996 301.565 391.396 301.029 391.676C300.501 391.956 299.909 392.096 299.253 392.096ZM299.253 390.32C299.645 390.32 299.977 390.176 300.249 389.888C300.529 389.6 300.669 389.188 300.669 388.652C300.669 388.116 300.533 387.704 300.261 387.416C299.997 387.128 299.669 386.984 299.277 386.984C298.877 386.984 298.545 387.128 298.281 387.416C298.017 387.696 297.885 388.108 297.885 388.652C297.885 389.188 298.013 389.6 298.269 389.888C298.533 390.176 298.861 390.32 299.253 390.32ZM300.837 383.588L297.945 384.8V383.384L300.837 381.992V383.588ZM303.438 388.64C303.438 387.952 303.566 387.348 303.822 386.828C304.086 386.308 304.442 385.908 304.89 385.628C305.338 385.348 305.838 385.208 306.39 385.208C306.83 385.208 307.23 385.3 307.59 385.484C307.958 385.668 308.246 385.916 308.454 386.228V383.12H310.506V392H308.454V391.04C308.262 391.36 307.986 391.616 307.626 391.808C307.274 392 306.862 392.096 306.39 392.096C305.838 392.096 305.338 391.956 304.89 391.676C304.442 391.388 304.086 390.984 303.822 390.464C303.566 389.936 303.438 389.328 303.438 388.64ZM308.454 388.652C308.454 388.14 308.31 387.736 308.022 387.44C307.742 387.144 307.398 386.996 306.99 386.996C306.582 386.996 306.234 387.144 305.946 387.44C305.666 387.728 305.526 388.128 305.526 388.64C305.526 389.152 305.666 389.56 305.946 389.864C306.234 390.16 306.582 390.308 306.99 390.308C307.398 390.308 307.742 390.16 308.022 389.864C308.31 389.568 308.454 389.164 308.454 388.652ZM313.022 384.608C312.662 384.608 312.366 384.504 312.134 384.296C311.91 384.08 311.798 383.816 311.798 383.504C311.798 383.184 311.91 382.92 312.134 382.712C312.366 382.496 312.662 382.388 313.022 382.388C313.374 382.388 313.662 382.496 313.886 382.712C314.118 382.92 314.234 383.184 314.234 383.504C314.234 383.816 314.118 384.08 313.886 384.296C313.662 384.504 313.374 384.608 313.022 384.608ZM314.042 385.304V392H311.99V385.304H314.042ZM318.073 385.208C318.545 385.208 318.957 385.304 319.309 385.496C319.669 385.688 319.945 385.94 320.137 386.252V385.304H322.189V391.988C322.189 392.604 322.065 393.16 321.817 393.656C321.577 394.16 321.205 394.56 320.701 394.856C320.205 395.152 319.585 395.3 318.841 395.3C317.849 395.3 317.045 395.064 316.429 394.592C315.813 394.128 315.461 393.496 315.373 392.696H317.401C317.465 392.952 317.617 393.152 317.857 393.296C318.097 393.448 318.393 393.524 318.745 393.524C319.169 393.524 319.505 393.4 319.753 393.152C320.009 392.912 320.137 392.524 320.137 391.988V391.04C319.937 391.352 319.661 391.608 319.309 391.808C318.957 392 318.545 392.096 318.073 392.096C317.521 392.096 317.021 391.956 316.573 391.676C316.125 391.388 315.769 390.984 315.505 390.464C315.249 389.936 315.121 389.328 315.121 388.64C315.121 387.952 315.249 387.348 315.505 386.828C315.769 386.308 316.125 385.908 316.573 385.628C317.021 385.348 317.521 385.208 318.073 385.208ZM320.137 388.652C320.137 388.14 319.993 387.736 319.705 387.44C319.425 387.144 319.081 386.996 318.673 386.996C318.265 386.996 317.917 387.144 317.629 387.44C317.349 387.728 317.209 388.128 317.209 388.64C317.209 389.152 317.349 389.56 317.629 389.864C317.917 390.16 318.265 390.308 318.673 390.308C319.081 390.308 319.425 390.16 319.705 389.864C319.993 389.568 320.137 389.164 320.137 388.652ZM326.722 392.096C326.066 392.096 325.474 391.956 324.946 391.676C324.426 391.396 324.014 390.996 323.71 390.476C323.414 389.956 323.266 389.348 323.266 388.652C323.266 387.964 323.418 387.36 323.722 386.84C324.026 386.312 324.442 385.908 324.97 385.628C325.498 385.348 326.09 385.208 326.746 385.208C327.402 385.208 327.994 385.348 328.522 385.628C329.05 385.908 329.466 386.312 329.77 386.84C330.074 387.36 330.226 387.964 330.226 388.652C330.226 389.34 330.07 389.948 329.758 390.476C329.454 390.996 329.034 391.396 328.498 391.676C327.97 391.956 327.378 392.096 326.722 392.096ZM326.722 390.32C327.114 390.32 327.446 390.176 327.718 389.888C327.998 389.6 328.138 389.188 328.138 388.652C328.138 388.116 328.002 387.704 327.73 387.416C327.466 387.128 327.138 386.984 326.746 386.984C326.346 386.984 326.014 387.128 325.75 387.416C325.486 387.696 325.354 388.108 325.354 388.652C325.354 389.188 325.482 389.6 325.738 389.888C326.002 390.176 326.33 390.32 326.722 390.32ZM335.909 383.12V392H333.857V383.12H335.909ZM338.428 384.608C338.068 384.608 337.772 384.504 337.54 384.296C337.316 384.08 337.204 383.816 337.204 383.504C337.204 383.184 337.316 382.92 337.54 382.712C337.772 382.496 338.068 382.388 338.428 382.388C338.78 382.388 339.068 382.496 339.292 382.712C339.524 382.92 339.64 383.184 339.64 383.504C339.64 383.816 339.524 384.08 339.292 384.296C339.068 384.504 338.78 384.608 338.428 384.608ZM339.448 385.304V392H337.396V385.304H339.448ZM349.479 385.232C350.311 385.232 350.971 385.484 351.459 385.988C351.955 386.492 352.203 387.192 352.203 388.088V392H350.163V388.364C350.163 387.932 350.047 387.6 349.815 387.368C349.591 387.128 349.279 387.008 348.879 387.008C348.479 387.008 348.163 387.128 347.931 387.368C347.707 387.6 347.595 387.932 347.595 388.364V392H345.555V388.364C345.555 387.932 345.439 387.6 345.207 387.368C344.983 387.128 344.671 387.008 344.271 387.008C343.871 387.008 343.555 387.128 343.323 387.368C343.099 387.6 342.987 387.932 342.987 388.364V392H340.935V385.304H342.987V386.144C343.195 385.864 343.467 385.644 343.803 385.484C344.139 385.316 344.519 385.232 344.943 385.232C345.447 385.232 345.895 385.34 346.287 385.556C346.687 385.772 346.999 386.08 347.223 386.48C347.455 386.112 347.771 385.812 348.171 385.58C348.571 385.348 349.007 385.232 349.479 385.232ZM355.691 386.252C355.891 385.94 356.167 385.688 356.519 385.496C356.871 385.304 357.283 385.208 357.755 385.208C358.307 385.208 358.807 385.348 359.255 385.628C359.703 385.908 360.055 386.308 360.311 386.828C360.575 387.348 360.707 387.952 360.707 388.64C360.707 389.328 360.575 389.936 360.311 390.464C360.055 390.984 359.703 391.388 359.255 391.676C358.807 391.956 358.307 392.096 357.755 392.096C357.291 392.096 356.879 392 356.519 391.808C356.167 391.616 355.891 391.368 355.691 391.064V395.192H353.639V385.304H355.691V386.252ZM358.619 388.64C358.619 388.128 358.475 387.728 358.187 387.44C357.907 387.144 357.559 386.996 357.143 386.996C356.735 386.996 356.387 387.144 356.099 387.44C355.819 387.736 355.679 388.14 355.679 388.652C355.679 389.164 355.819 389.568 356.099 389.864C356.387 390.16 356.735 390.308 357.143 390.308C357.551 390.308 357.899 390.16 358.187 389.864C358.475 389.56 358.619 389.152 358.619 388.64ZM364.831 392.096C364.175 392.096 363.583 391.956 363.055 391.676C362.535 391.396 362.123 390.996 361.819 390.476C361.523 389.956 361.375 389.348 361.375 388.652C361.375 387.964 361.527 387.36 361.831 386.84C362.135 386.312 362.551 385.908 363.079 385.628C363.607 385.348 364.199 385.208 364.855 385.208C365.511 385.208 366.103 385.348 366.631 385.628C367.159 385.908 367.575 386.312 367.879 386.84C368.183 387.36 368.335 387.964 368.335 388.652C368.335 389.34 368.179 389.948 367.867 390.476C367.563 390.996 367.143 391.396 366.607 391.676C366.079 391.956 365.487 392.096 364.831 392.096ZM364.831 390.32C365.223 390.32 365.555 390.176 365.827 389.888C366.107 389.6 366.247 389.188 366.247 388.652C366.247 388.116 366.111 387.704 365.839 387.416C365.575 387.128 365.247 386.984 364.855 386.984C364.455 386.984 364.123 387.128 363.859 387.416C363.595 387.696 363.463 388.108 363.463 388.652C363.463 389.188 363.591 389.6 363.847 389.888C364.111 390.176 364.439 390.32 364.831 390.32Z" fill="#8A90A2"/>
<path d="M336.667 360.75L351.917 345.5L336.667 330.25" stroke="#2D1762" stroke-width="6" stroke-linecap="round" stroke-linejoin="round"/>
<path d="M316.333 330.25L301.083 345.5L316.333 360.75" stroke="#2D1762" stroke-width="6" stroke-linecap="round" stroke-linejoin="round"/>
<defs>
<clipPath id="clip0_265_22">
<rect width="61" height="61" fill="white" transform="translate(44 276)"/>
</clipPath>
<clipPath id="clip1_265_22">
<rect width="61" height="61" fill="white" transform="translate(296 63)"/>
</clipPath>
</defs>
</svg>
