<svg width="33" height="33" viewBox="0 0 33 33" fill="none" xmlns="http://www.w3.org/2000/svg">
<g clip-path="url(#clip0_258_43)">
<path d="M29.8971 0.527222H3.44819C1.835 0.527222 0.527222 1.835 0.527222 3.44819V29.897C0.527222 31.5103 1.835 32.8181 3.44819 32.8181H29.897C31.5103 32.8181 32.8181 31.5103 32.8181 29.897V3.44819C32.8181 1.835 31.5103 0.527222 29.8971 0.527222ZM10.5194 28.4093C10.5194 28.8788 10.1388 29.2593 9.66934 29.2593H6.0509C5.58142 29.2593 5.20086 28.8788 5.20086 28.4093V13.2409C5.20086 12.7715 5.58142 12.3909 6.0509 12.3909H9.66934C10.1388 12.3909 10.5194 12.7715 10.5194 13.2409V28.4093ZM7.86012 10.9611C5.96164 10.9611 4.42258 9.422 4.42258 7.52352C4.42258 5.62503 5.96164 4.08598 7.86012 4.08598C9.7586 4.08598 11.2977 5.62503 11.2977 7.52352C11.2977 9.422 9.75869 10.9611 7.86012 10.9611ZM29.4292 28.4777C29.4292 28.9094 29.0793 29.2593 28.6477 29.2593H24.7648C24.3332 29.2593 23.9832 28.9094 23.9832 28.4777V21.3629C23.9832 20.3016 24.2946 16.712 21.2095 16.712C18.8165 16.712 18.3311 19.1689 18.2337 20.2716V28.4777C18.2337 28.9094 17.8838 29.2593 17.4521 29.2593H13.6967C13.2651 29.2593 12.9152 28.9094 12.9152 28.4777V13.1725C12.9152 12.7409 13.2651 12.3909 13.6967 12.3909H17.4521C17.8837 12.3909 18.2337 12.7409 18.2337 13.1725V14.4958C19.121 13.1642 20.4397 12.1364 23.2474 12.1364C29.4648 12.1364 29.4292 17.945 29.4292 21.1366V28.4777Z" fill="#0077B7"/>
</g>
<defs>
<clipPath id="clip0_258_43">
<rect width="32.2909" height="32.2909" fill="white" transform="translate(0.527222 0.527222)"/>
</clipPath>
</defs>
</svg>
